{"title":"American Heist(2015)MPEG-4{DaScubaDude]","uid":13842247,"size":944376959,"categoryP":"video","categoryS":"movies","magnet":"?xt=urn:btih:93c4f3e667765b04e91fb388fbfb1c0ea608676e&amp;dn=American+Heist%282015%29MPEG-4%7BDaScubaDude%5D&amp;tr=udp%3A%2F%2Ftracker.leechers-paradise.org%3A6969&amp;tr=udp%3A%2F%2Fzer0day.ch%3A1337&amp;tr=udp%3A%2F%2Fopen.demonii.com%3A1337&amp;tr=udp%3A%2F%2Ftracker.coppersurfer.tk%3A6969&amp;tr=udp%3A%2F%2Fexodus.desync.com%3A6969","seeders":0,"leechers":2,"uploader":"dascuba","files":1,"time":1457812509,"description":"American Heist (2014)\r\nR | 1h 34min | Action, Crime, Drama | 24 July 2015 (USA)\r\nJames owes his life to his older brother, Frankie after taking the rap for a crime they committed together. While Frankie served time, James worked to turn his life around, got a steady job and began courting his former girlfriend Emily. Now, Frankie is released and back on the streets with no money and no place to go.\r\nDirector: Sarik Andreasyan\r\nWriter: Raul Inglis\r\nStars: Hayden Christensen, Adrien Brody, Jordana Brewster \r\n\r\nGeneral\r\nComplete name                            : American HiestAMERICAN_HEIST_Title6_1.mp4\r\nFormat                                   : MPEG-4\r\nFormat profile                           : Base Media\r\nCodec ID                                 : isom\r\nFile size                                : 901 MiB\r\nDuration                                 : 1h 34mn\r\nOverall bit rate                         : 1 326 Kbps\r\nMovie name                               : AMERICAN_HEIST\r\nGenre                                    : Drama\r\nWriting application                      : Lavf54.6.100\r\n\r\nVideo\r\nID                                       : 1\r\nFormat                                   : AVC\r\nFormat/Info                              : Advanced Video Codec\r\nFormat profile                           :   \r\nFormat settings, CABAC                   : No\r\nFormat settings, ReFrames                : 6 frames\r\nCodec ID                                 : avc1\r\nCodec ID/Info                            : Advanced Video Coding\r\nDuration                                 : 1h 34mn\r\nBit rate                                 : 1 191 Kbps\r\nWidth                                    : 720 pixels\r\nHeight                                   : 404 pixels\r\nDisplay aspect ratio                     : 16:9\r\nFrame rate mode                          : Constant\r\nFrame rate                               : 29.970 fps\r\nColor space                              : YUV\r\nChroma subsampling                       : 4:2:0\r\nBit depth                                : 8 bits\r\nScan type                                : Progressive\r\nBits/(Pixel*Frame)                       : 0.137\r\nStream size                              : 809 MiB (90%)\r\n\r\nAudio\r\nID                                       : 2\r\nFormat                                   : AAC\r\nFormat/Info                              : Advanced Audio Codec\r\nFormat profile                           : LC\r\nCodec ID                                 : 40\r\nDuration                                 : 1h 34mn\r\nBit rate mode                            : Constant\r\nBit rate                                 : 128 Kbps\r\nChannel(s)                               : 2 channels\r\nChannel positions                        : Front: L R\r\nSampling rate                            : 44.1 KHz\r\nCompression mode                         : Lossy\r\nStream size                              : 86.9 MiB (10%)","torrent":{"xt":"urn:btih:93c4f3e667765b04e91fb388fbfb1c0ea608676e","amp;dn":"American+Heist%282015%29MPEG-4%7BDaScubaDude%5D","amp;tr":["udp%3A%2F%2Ftracker.leechers-paradise.org%3A6969","udp%3A%2F%2Fzer0day.ch%3A1337","udp%3A%2F%2Fopen.demonii.com%3A1337","udp%3A%2F%2Ftracker.coppersurfer.tk%3A6969","udp%3A%2F%2Fexodus.desync.com%3A6969"],"infoHash":"93c4f3e667765b04e91fb388fbfb1c0ea608676e","infoHashBuffer":{"type":"Buffer","data":[147,196,243,230,103,118,91,4,233,31,179,136,251,251,28,14,166,8,103,110]},"announce":[],"urlList":[]}}